<?xml version="1.0" encoding="UTF-8" standalone="no"?>
<!DOCTYPE svg PUBLIC "-//W3C//DTD SVG 1.1//EN"
 "http://www.w3.org/Graphics/SVG/1.1/DTD/svg11.dtd">
<!-- Generated by graphviz version 2.43.0 (0)
 -->
<!-- Title: SortOperationTest.testTwoSortByClauseDescending_IP Pages: 1 -->
<svg width="574pt" height="297pt"
 viewBox="0.00 0.00 574.00 296.50" xmlns="http://www.w3.org/2000/svg" xmlns:xlink="http://www.w3.org/1999/xlink">
<g id="graph0" class="graph" transform="scale(1 1) rotate(0) translate(4 292.5)">
<title>SortOperationTest.testTwoSortByClauseDescending_IP</title>
<!-- Node1 -->
<g id="node1" class="node">
<title>Node1</title>
<g id="a_node1"><a xlink:title=" ">
<polygon fill="#999999" stroke="#666666" points="153,-150 0,-150 0,-120 153,-120 153,-150"/>
<text text-anchor="start" x="8" y="-138" font-family="Helvetica,sans-Serif" font-size="10.00">SortOperationTest.testTwo</text>
<text text-anchor="middle" x="76.5" y="-127" font-family="Helvetica,sans-Serif" font-size="10.00">SortByClauseDescending_IP</text>
</a>
</g>
</g>
<!-- Node2 -->
<g id="node2" class="node">
<title>Node2</title>
<g id="a_node2"><a xlink:href="classSortOperationTest.html#a068b17fb9181e151d2008f220cb1cb39" target="_top" xlink:title=" ">
<polygon fill="white" stroke="#666666" points="358,-270.5 197,-270.5 197,-251.5 358,-251.5 358,-270.5"/>
<text text-anchor="middle" x="277.5" y="-258.5" font-family="Helvetica,sans-Serif" font-size="10.00">SortOperationTest.createData</text>
</a>
</g>
</g>
<!-- Node1&#45;&gt;Node2 -->
<g id="edge1" class="edge">
<title>Node1&#45;&gt;Node2</title>
<path fill="none" stroke="#63b8ff" d="M88.66,-150.12C106.89,-173.67 145.43,-218.8 189,-242 193.32,-244.3 197.9,-246.32 202.61,-248.1"/>
<polygon fill="#63b8ff" stroke="#63b8ff" points="201.82,-251.53 212.42,-251.41 204.06,-244.89 201.82,-251.53"/>
</g>
<!-- Node5 -->
<g id="node5" class="node">
<title>Node5</title>
<g id="a_node5"><a xlink:href="classcom_1_1teragrep_1_1functions_1_1dpf__02_1_1BatchCollect.html#a1d33f0edcedc0b31ff0bc21447caafe0" target="_top" xlink:title=" ">
<polygon fill="white" stroke="#666666" points="365,-233.5 190,-233.5 190,-192.5 365,-192.5 365,-233.5"/>
<text text-anchor="start" x="198" y="-221.5" font-family="Helvetica,sans-Serif" font-size="10.00">com.teragrep.functions.dpf</text>
<text text-anchor="start" x="198" y="-210.5" font-family="Helvetica,sans-Serif" font-size="10.00">_02.BatchCollect.getCollectedAs</text>
<text text-anchor="middle" x="277.5" y="-199.5" font-family="Helvetica,sans-Serif" font-size="10.00">Dataframe</text>
</a>
</g>
</g>
<!-- Node1&#45;&gt;Node5 -->
<g id="edge4" class="edge">
<title>Node1&#45;&gt;Node5</title>
<path fill="none" stroke="#63b8ff" d="M110.89,-150.17C132.9,-159.97 162.46,-172.75 189,-183 194.15,-184.99 199.49,-186.98 204.89,-188.95"/>
<polygon fill="#63b8ff" stroke="#63b8ff" points="204.03,-192.36 214.62,-192.44 206.39,-185.77 204.03,-192.36"/>
</g>
<!-- Node6 -->
<g id="node6" class="node">
<title>Node6</title>
<g id="a_node6"><a xlink:href="classcom_1_1teragrep_1_1functions_1_1dpf__02_1_1SortByClause.html#ab171ca53f7e6dc234998463b8d048458" target="_top" xlink:title=" ">
<polygon fill="white" stroke="#666666" points="366,-174 189,-174 189,-144 366,-144 366,-174"/>
<text text-anchor="start" x="197" y="-162" font-family="Helvetica,sans-Serif" font-size="10.00">com.teragrep.functions.dpf</text>
<text text-anchor="middle" x="277.5" y="-151" font-family="Helvetica,sans-Serif" font-size="10.00">_02.SortByClause.setDescending</text>
</a>
</g>
</g>
<!-- Node1&#45;&gt;Node6 -->
<g id="edge5" class="edge">
<title>Node1&#45;&gt;Node6</title>
<path fill="none" stroke="#63b8ff" d="M153.02,-144.11C161.39,-145.12 170.01,-146.16 178.61,-147.19"/>
<polygon fill="#63b8ff" stroke="#63b8ff" points="178.34,-150.69 188.69,-148.41 179.18,-143.74 178.34,-150.69"/>
</g>
<!-- Node7 -->
<g id="node7" class="node">
<title>Node7</title>
<g id="a_node7"><a xlink:href="classcom_1_1teragrep_1_1functions_1_1dpf__02_1_1SortByClause.html#a5fd03f7ed55e7f7cc78ad999d08aa772" target="_top" xlink:title=" ">
<polygon fill="white" stroke="#666666" points="364,-126 191,-126 191,-96 364,-96 364,-126"/>
<text text-anchor="start" x="199" y="-114" font-family="Helvetica,sans-Serif" font-size="10.00">com.teragrep.functions.dpf</text>
<text text-anchor="middle" x="277.5" y="-103" font-family="Helvetica,sans-Serif" font-size="10.00">_02.SortByClause.setFieldName</text>
</a>
</g>
</g>
<!-- Node1&#45;&gt;Node7 -->
<g id="edge6" class="edge">
<title>Node1&#45;&gt;Node7</title>
<path fill="none" stroke="#63b8ff" d="M153.02,-125.89C162.06,-124.8 171.39,-123.68 180.67,-122.56"/>
<polygon fill="#63b8ff" stroke="#63b8ff" points="181.2,-126.02 190.71,-121.35 180.36,-119.07 181.2,-126.02"/>
</g>
<!-- Node8 -->
<g id="node8" class="node">
<title>Node8</title>
<g id="a_node8"><a xlink:href="classcom_1_1teragrep_1_1functions_1_1dpf__02_1_1SortByClause.html#ac640f799be42407d302dca016f669624" target="_top" xlink:title=" ">
<polygon fill="white" stroke="#666666" points="352,-78 203,-78 203,-48 352,-48 352,-78"/>
<text text-anchor="start" x="211" y="-66" font-family="Helvetica,sans-Serif" font-size="10.00">com.teragrep.functions.dpf</text>
<text text-anchor="middle" x="277.5" y="-55" font-family="Helvetica,sans-Serif" font-size="10.00">_02.SortByClause.setLimit</text>
</a>
</g>
</g>
<!-- Node1&#45;&gt;Node8 -->
<g id="edge7" class="edge">
<title>Node1&#45;&gt;Node8</title>
<path fill="none" stroke="#63b8ff" d="M109.24,-119.94C131.3,-109.82 161.55,-96.62 189,-87 194.95,-84.91 201.18,-82.89 207.46,-80.97"/>
<polygon fill="#63b8ff" stroke="#63b8ff" points="208.74,-84.24 217.32,-78.03 206.74,-77.53 208.74,-84.24"/>
</g>
<!-- Node9 -->
<g id="node9" class="node">
<title>Node9</title>
<g id="a_node9"><a xlink:href="classcom_1_1teragrep_1_1functions_1_1dpf__02_1_1SortByClause.html#a122c5ee0718e7e7d123a15be3410d437" target="_top" xlink:title=" ">
<polygon fill="white" stroke="#666666" points="364.5,-30 190.5,-30 190.5,0 364.5,0 364.5,-30"/>
<text text-anchor="start" x="198.5" y="-18" font-family="Helvetica,sans-Serif" font-size="10.00">com.teragrep.functions.dpf</text>
<text text-anchor="middle" x="277.5" y="-7" font-family="Helvetica,sans-Serif" font-size="10.00">_02.SortByClause.setSortAsType</text>
</a>
</g>
</g>
<!-- Node1&#45;&gt;Node9 -->
<g id="edge8" class="edge">
<title>Node1&#45;&gt;Node9</title>
<path fill="none" stroke="#63b8ff" d="M91.07,-119.65C110.64,-98.43 148.87,-60.37 189,-39 192.5,-37.14 196.15,-35.41 199.9,-33.81"/>
<polygon fill="#63b8ff" stroke="#63b8ff" points="201.35,-37 209.37,-30.08 198.78,-30.49 201.35,-37"/>
</g>
<!-- Node3 -->
<g id="node3" class="node">
<title>Node3</title>
<g id="a_node3"><a xlink:href="classSortOperationTest.html#a8f1fd7df4eecf5e01027fbc6fa1efbf9" target="_top" xlink:title=" ">
<polygon fill="white" stroke="#666666" points="564,-288.5 404,-288.5 404,-269.5 564,-269.5 564,-288.5"/>
<text text-anchor="middle" x="484" y="-276.5" font-family="Helvetica,sans-Serif" font-size="10.00">SortOperationTest.makeRows</text>
</a>
</g>
</g>
<!-- Node2&#45;&gt;Node3 -->
<g id="edge2" class="edge">
<title>Node2&#45;&gt;Node3</title>
<path fill="none" stroke="#63b8ff" d="M358.15,-268.01C369.77,-269.03 381.81,-270.09 393.61,-271.13"/>
<polygon fill="#63b8ff" stroke="#63b8ff" points="393.63,-274.65 403.9,-272.04 394.25,-267.67 393.63,-274.65"/>
</g>
<!-- Node4 -->
<g id="node4" class="node">
<title>Node4</title>
<g id="a_node4"><a xlink:href="classSortOperationTest.html#aec1a31756fffd768b8cb7c988b409bc4" target="_top" xlink:title=" ">
<polygon fill="white" stroke="#666666" points="566,-251.5 402,-251.5 402,-232.5 566,-232.5 566,-251.5"/>
<text text-anchor="middle" x="484" y="-239.5" font-family="Helvetica,sans-Serif" font-size="10.00">SortOperationTest.startStream</text>
</a>
</g>
</g>
<!-- Node2&#45;&gt;Node4 -->
<g id="edge3" class="edge">
<title>Node2&#45;&gt;Node4</title>
<path fill="none" stroke="#63b8ff" d="M358.15,-253.6C369.14,-252.58 380.5,-251.52 391.68,-250.48"/>
<polygon fill="#63b8ff" stroke="#63b8ff" points="392.25,-253.95 401.88,-249.54 391.6,-246.98 392.25,-253.95"/>
</g>
</g>
</svg>
