<?xml version="1.0" encoding="UTF-8" standalone="no"?>
<!DOCTYPE svg PUBLIC "-//W3C//DTD SVG 1.1//EN"
 "http://www.w3.org/Graphics/SVG/1.1/DTD/svg11.dtd">
<!-- Generated by graphviz version 2.43.0 (0)
 -->
<!-- Title: com.teragrep.functions.dpf_02.BatchCollect Pages: 1 -->
<svg width="453pt" height="214pt"
 viewBox="0.00 0.00 452.50 214.00" xmlns="http://www.w3.org/2000/svg" xmlns:xlink="http://www.w3.org/1999/xlink">
<g id="graph0" class="graph" transform="scale(1 1) rotate(0) translate(4 210)">
<title>com.teragrep.functions.dpf_02.BatchCollect</title>
<!-- Node1 -->
<g id="node1" class="node">
<title>Node1</title>
<g id="a_node1"><a xlink:title="Handles the business logic for processing orders.">
<polygon fill="#999999" stroke="#666666" points="326,-30 177,-30 177,0 326,0 326,-30"/>
<text text-anchor="start" x="185" y="-18" font-family="Helvetica,sans-Serif" font-size="10.00">com.teragrep.functions.dpf</text>
<text text-anchor="middle" x="251.5" y="-7" font-family="Helvetica,sans-Serif" font-size="10.00">_02.BatchCollect</text>
</a>
</g>
</g>
<!-- Node2 -->
<g id="node2" class="node">
<title>Node2</title>
<g id="a_node2"><a xlink:href="classcom_1_1teragrep_1_1functions_1_1dpf__02_1_1SortOperation.html" target="_top" xlink:title=" ">
<polygon fill="white" stroke="#666666" points="163,-129 14,-129 14,-99 163,-99 163,-129"/>
<text text-anchor="start" x="22" y="-117" font-family="Helvetica,sans-Serif" font-size="10.00">com.teragrep.functions.dpf</text>
<text text-anchor="middle" x="88.5" y="-106" font-family="Helvetica,sans-Serif" font-size="10.00">_02.SortOperation</text>
</a>
</g>
</g>
<!-- Node2&#45;&gt;Node1 -->
<g id="edge1" class="edge">
<title>Node2&#45;&gt;Node1</title>
<path fill="none" stroke="#63b8ff" d="M121.05,-93.63C152.58,-74.87 199.63,-46.87 227.77,-30.12"/>
<polygon fill="#63b8ff" stroke="#63b8ff" points="119.01,-90.77 112.2,-98.9 122.58,-96.79 119.01,-90.77"/>
</g>
<!-- Node3 -->
<g id="node3" class="node">
<title>Node3</title>
<g id="a_node3"><a xlink:title=" ">
<polygon fill="white" stroke="#666666" points="177,-206 0,-206 0,-176 177,-176 177,-206"/>
<text text-anchor="start" x="8" y="-194" font-family="Helvetica,sans-Serif" font-size="10.00">List&lt; com.teragrep.functions.dpf</text>
<text text-anchor="middle" x="88.5" y="-183" font-family="Helvetica,sans-Serif" font-size="10.00">_02.SortByClause &gt;</text>
</a>
</g>
</g>
<!-- Node3&#45;&gt;Node2 -->
<g id="edge2" class="edge">
<title>Node3&#45;&gt;Node2</title>
<path fill="none" stroke="#9a32cd" stroke-dasharray="5,2" d="M88.5,-165.54C88.5,-153.45 88.5,-139.29 88.5,-129.04"/>
<polygon fill="#9a32cd" stroke="#9a32cd" points="85,-165.89 88.5,-175.89 92,-165.89 85,-165.89"/>
<text text-anchor="middle" x="138.5" y="-150" font-family="Helvetica,sans-Serif" font-size="10.00"> listOfSortByClauses</text>
</g>
<!-- Node4 -->
<g id="node4" class="node">
<title>Node4</title>
<g id="a_node4"><a xlink:title=" ">
<polygon fill="white" stroke="#666666" points="230.5,-123.5 180.5,-123.5 180.5,-104.5 230.5,-104.5 230.5,-123.5"/>
<text text-anchor="middle" x="205.5" y="-111.5" font-family="Helvetica,sans-Serif" font-size="10.00">Logger</text>
</a>
</g>
</g>
<!-- Node4&#45;&gt;Node1 -->
<g id="edge3" class="edge">
<title>Node4&#45;&gt;Node1</title>
<path fill="none" stroke="#9a32cd" stroke-dasharray="5,2" d="M211.87,-94.58C216.68,-81.35 223.77,-63.24 231.5,-48 234.58,-41.92 238.46,-35.5 241.98,-30.02"/>
<polygon fill="#9a32cd" stroke="#9a32cd" points="208.44,-93.78 208.4,-104.37 215.04,-96.12 208.44,-93.78"/>
<text text-anchor="middle" x="253.5" y="-62" font-family="Helvetica,sans-Serif" font-size="10.00"> LOGGER</text>
</g>
<!-- Node5 -->
<g id="node5" class="node">
<title>Node5</title>
<g id="a_node5"><a xlink:title=" ">
<polygon fill="white" stroke="#666666" points="346.5,-123.5 248.5,-123.5 248.5,-104.5 346.5,-104.5 346.5,-123.5"/>
<text text-anchor="middle" x="297.5" y="-111.5" font-family="Helvetica,sans-Serif" font-size="10.00">Dataset&lt; Row &gt;</text>
</a>
</g>
</g>
<!-- Node5&#45;&gt;Node1 -->
<g id="edge4" class="edge">
<title>Node5&#45;&gt;Node1</title>
<path fill="none" stroke="#9a32cd" stroke-dasharray="5,2" d="M292.88,-94.32C289.18,-80.97 283.31,-62.82 275.5,-48 272.2,-41.73 267.72,-35.38 263.52,-30"/>
<polygon fill="#9a32cd" stroke="#9a32cd" points="289.56,-95.45 295.48,-104.23 296.33,-93.67 289.56,-95.45"/>
<text text-anchor="middle" x="316" y="-73" font-family="Helvetica,sans-Serif" font-size="10.00"> lastRowDs</text>
<text text-anchor="middle" x="316" y="-62" font-family="Helvetica,sans-Serif" font-size="10.00">outputDs</text>
<text text-anchor="middle" x="316" y="-51" font-family="Helvetica,sans-Serif" font-size="10.00">savedDs</text>
</g>
<!-- Node6 -->
<g id="node6" class="node">
<title>Node6</title>
<g id="a_node6"><a xlink:title=" ">
<polygon fill="white" stroke="#666666" points="432.5,-123.5 364.5,-123.5 364.5,-104.5 432.5,-104.5 432.5,-123.5"/>
<text text-anchor="middle" x="398.5" y="-111.5" font-family="Helvetica,sans-Serif" font-size="10.00">StructType</text>
</a>
</g>
</g>
<!-- Node6&#45;&gt;Node1 -->
<g id="edge5" class="edge">
<title>Node6&#45;&gt;Node1</title>
<path fill="none" stroke="#9a32cd" stroke-dasharray="5,2" d="M388.72,-95.44C379.76,-80.83 365.2,-60.47 347.5,-48 336.8,-40.46 324.2,-34.6 311.71,-30.08"/>
<polygon fill="#9a32cd" stroke="#9a32cd" points="385.71,-97.22 393.79,-104.07 391.75,-93.68 385.71,-97.22"/>
<text text-anchor="middle" x="411" y="-62" font-family="Helvetica,sans-Serif" font-size="10.00"> inputSchema</text>
</g>
</g>
</svg>
