<?xml version="1.0" encoding="UTF-8" standalone="no"?>
<!DOCTYPE svg PUBLIC "-//W3C//DTD SVG 1.1//EN"
 "http://www.w3.org/Graphics/SVG/1.1/DTD/svg11.dtd">
<!-- Generated by graphviz version 2.43.0 (0)
 -->
<!-- Title: com.teragrep.functions.dpf_02.SortByClause.setFieldName Pages: 1 -->
<svg width="1201pt" height="236pt"
 viewBox="0.00 0.00 1201.00 235.50" xmlns="http://www.w3.org/2000/svg" xmlns:xlink="http://www.w3.org/1999/xlink">
<g id="graph0" class="graph" transform="scale(1 1) rotate(0) translate(4 231.5)">
<title>com.teragrep.functions.dpf_02.SortByClause.setFieldName</title>
<!-- Node1 -->
<g id="node1" class="node">
<title>Node1</title>
<g id="a_node1"><a xlink:title=" ">
<polygon fill="#999999" stroke="#666666" points="1193,-126 1020,-126 1020,-96 1193,-96 1193,-126"/>
<text text-anchor="start" x="1028" y="-114" font-family="Helvetica,sans-Serif" font-size="10.00">com.teragrep.functions.dpf</text>
<text text-anchor="middle" x="1106.5" y="-103" font-family="Helvetica,sans-Serif" font-size="10.00">_02.SortByClause.setFieldName</text>
</a>
</g>
</g>
<!-- Node2 -->
<g id="node2" class="node">
<title>Node2</title>
<g id="a_node2"><a xlink:href="classcom_1_1teragrep_1_1functions_1_1dpf__02_1_1SortOperation.html#a08aa90d9188bc7d1d71bf60fbf6637af" target="_top" xlink:title=" ">
<polygon fill="white" stroke="#666666" points="984,-222 791,-222 791,-192 984,-192 984,-222"/>
<text text-anchor="start" x="799" y="-210" font-family="Helvetica,sans-Serif" font-size="10.00">com.teragrep.functions.dpf</text>
<text text-anchor="middle" x="887.5" y="-199" font-family="Helvetica,sans-Serif" font-size="10.00">_02.SortOperation.detectSortByType</text>
</a>
</g>
</g>
<!-- Node1&#45;&gt;Node2 -->
<g id="edge1" class="edge">
<title>Node1&#45;&gt;Node2</title>
<path fill="none" stroke="#63b8ff" d="M1075.53,-132.1C1051.69,-148.04 1016.97,-169.42 984,-183 975.86,-186.35 967.13,-189.33 958.38,-191.94"/>
<polygon fill="#63b8ff" stroke="#63b8ff" points="1077.8,-134.79 1084.11,-126.28 1073.87,-129 1077.8,-134.79"/>
</g>
<!-- Node7 -->
<g id="node7" class="node">
<title>Node7</title>
<g id="a_node7"><a xlink:href="classSortOperationTest.html#aced236ff97a03acfda235216c051587c" target="_top" xlink:title=" ">
<polygon fill="white" stroke="#666666" points="964,-174 811,-174 811,-144 964,-144 964,-174"/>
<text text-anchor="start" x="819" y="-162" font-family="Helvetica,sans-Serif" font-size="10.00">SortOperationTest.testThree</text>
<text text-anchor="middle" x="887.5" y="-151" font-family="Helvetica,sans-Serif" font-size="10.00">SortByClauses</text>
</a>
</g>
</g>
<!-- Node1&#45;&gt;Node7 -->
<g id="edge6" class="edge">
<title>Node1&#45;&gt;Node7</title>
<path fill="none" stroke="#63b8ff" d="M1027.59,-128.23C1004.28,-133.39 978.93,-139 956.32,-144"/>
<polygon fill="#63b8ff" stroke="#63b8ff" points="1028.43,-131.63 1037.44,-126.06 1026.92,-124.8 1028.43,-131.63"/>
</g>
<!-- Node8 -->
<g id="node8" class="node">
<title>Node8</title>
<g id="a_node8"><a xlink:href="classSortOperationTest.html#aef072d804fb23f999f756588308a73c1" target="_top" xlink:title=" ">
<polygon fill="white" stroke="#666666" points="964,-126 811,-126 811,-96 964,-96 964,-126"/>
<text text-anchor="start" x="819" y="-114" font-family="Helvetica,sans-Serif" font-size="10.00">SortOperationTest.testTwo</text>
<text text-anchor="middle" x="887.5" y="-103" font-family="Helvetica,sans-Serif" font-size="10.00">SortByClauseDescending_IP</text>
</a>
</g>
</g>
<!-- Node1&#45;&gt;Node8 -->
<g id="edge7" class="edge">
<title>Node1&#45;&gt;Node8</title>
<path fill="none" stroke="#63b8ff" d="M1009.33,-111C994.19,-111 978.74,-111 964.15,-111"/>
<polygon fill="#63b8ff" stroke="#63b8ff" points="1009.74,-114.5 1019.74,-111 1009.74,-107.5 1009.74,-114.5"/>
</g>
<!-- Node9 -->
<g id="node9" class="node">
<title>Node9</title>
<g id="a_node9"><a xlink:href="classSortOperationTest.html#a334b580450a7df03ecf9b5e68c801f26" target="_top" xlink:title=" ">
<polygon fill="white" stroke="#666666" points="959.5,-78 815.5,-78 815.5,-48 959.5,-48 959.5,-78"/>
<text text-anchor="start" x="823.5" y="-66" font-family="Helvetica,sans-Serif" font-size="10.00">SortOperationTest.testTwo</text>
<text text-anchor="middle" x="887.5" y="-55" font-family="Helvetica,sans-Serif" font-size="10.00">SortByClauses</text>
</a>
</g>
</g>
<!-- Node1&#45;&gt;Node9 -->
<g id="edge8" class="edge">
<title>Node1&#45;&gt;Node9</title>
<path fill="none" stroke="#63b8ff" d="M1027.59,-93.77C1004.28,-88.61 978.93,-83 956.32,-78"/>
<polygon fill="#63b8ff" stroke="#63b8ff" points="1026.92,-97.2 1037.44,-95.94 1028.43,-90.37 1026.92,-97.2"/>
</g>
<!-- Node10 -->
<g id="node10" class="node">
<title>Node10</title>
<g id="a_node10"><a xlink:href="classSortOperationTest.html#ac8f280dece164faa16d7f0c466ed84e7" target="_top" xlink:title=" ">
<polygon fill="white" stroke="#666666" points="959.5,-30 815.5,-30 815.5,0 959.5,0 959.5,-30"/>
<text text-anchor="start" x="823.5" y="-18" font-family="Helvetica,sans-Serif" font-size="10.00">SortOperationTest.testTwo</text>
<text text-anchor="middle" x="887.5" y="-7" font-family="Helvetica,sans-Serif" font-size="10.00">SortByClausesDescending</text>
</a>
</g>
</g>
<!-- Node1&#45;&gt;Node10 -->
<g id="edge9" class="edge">
<title>Node1&#45;&gt;Node10</title>
<path fill="none" stroke="#63b8ff" d="M1075.53,-89.9C1051.69,-73.96 1016.97,-52.58 984,-39 975.86,-35.65 967.13,-32.67 958.38,-30.06"/>
<polygon fill="#63b8ff" stroke="#63b8ff" points="1073.87,-93 1084.11,-95.72 1077.8,-87.21 1073.87,-93"/>
</g>
<!-- Node3 -->
<g id="node3" class="node">
<title>Node3</title>
<g id="a_node3"><a xlink:href="classcom_1_1teragrep_1_1functions_1_1dpf__02_1_1SortOperation.html#a45146062afc6803dc2bb44ff0a7c8b3a" target="_top" xlink:title=" ">
<polygon fill="white" stroke="#666666" points="755,-227.5 571,-227.5 571,-186.5 755,-186.5 755,-227.5"/>
<text text-anchor="start" x="579" y="-215.5" font-family="Helvetica,sans-Serif" font-size="10.00">com.teragrep.functions.dpf</text>
<text text-anchor="start" x="579" y="-204.5" font-family="Helvetica,sans-Serif" font-size="10.00">_02.SortOperation.orderDatasetBy</text>
<text text-anchor="middle" x="663" y="-193.5" font-family="Helvetica,sans-Serif" font-size="10.00">GivenColumns</text>
</a>
</g>
</g>
<!-- Node2&#45;&gt;Node3 -->
<g id="edge2" class="edge">
<title>Node2&#45;&gt;Node3</title>
<path fill="none" stroke="#63b8ff" d="M780.59,-207C772.15,-207 763.67,-207 755.34,-207"/>
<polygon fill="#63b8ff" stroke="#63b8ff" points="780.85,-210.5 790.85,-207 780.85,-203.5 780.85,-210.5"/>
</g>
<!-- Node4 -->
<g id="node4" class="node">
<title>Node4</title>
<g id="a_node4"><a xlink:href="classcom_1_1teragrep_1_1functions_1_1dpf__02_1_1BatchCollect.html#a00b243598f8845aac78b565b7f10eb8e" target="_top" xlink:title=" ">
<polygon fill="white" stroke="#666666" points="535,-222 370,-222 370,-192 535,-192 535,-222"/>
<text text-anchor="start" x="378" y="-210" font-family="Helvetica,sans-Serif" font-size="10.00">com.teragrep.functions.dpf</text>
<text text-anchor="middle" x="452.5" y="-199" font-family="Helvetica,sans-Serif" font-size="10.00">_02.BatchCollect.orderDataset</text>
</a>
</g>
</g>
<!-- Node3&#45;&gt;Node4 -->
<g id="edge3" class="edge">
<title>Node3&#45;&gt;Node4</title>
<path fill="none" stroke="#63b8ff" d="M560.83,-207C552.26,-207 543.67,-207 535.29,-207"/>
<polygon fill="#63b8ff" stroke="#63b8ff" points="560.85,-210.5 570.85,-207 560.85,-203.5 560.85,-210.5"/>
</g>
<!-- Node5 -->
<g id="node5" class="node">
<title>Node5</title>
<g id="a_node5"><a xlink:href="classcom_1_1teragrep_1_1functions_1_1dpf__02_1_1BatchCollect.html#a7767e43067843cf7491c54459e7f3b1f" target="_top" xlink:title=" ">
<polygon fill="white" stroke="#666666" points="334,-222 185,-222 185,-192 334,-192 334,-222"/>
<text text-anchor="start" x="193" y="-210" font-family="Helvetica,sans-Serif" font-size="10.00">com.teragrep.functions.dpf</text>
<text text-anchor="middle" x="259.5" y="-199" font-family="Helvetica,sans-Serif" font-size="10.00">_02.BatchCollect.collect</text>
</a>
</g>
</g>
<!-- Node4&#45;&gt;Node5 -->
<g id="edge4" class="edge">
<title>Node4&#45;&gt;Node5</title>
<path fill="none" stroke="#63b8ff" d="M359.88,-207C351.28,-207 342.64,-207 334.23,-207"/>
<polygon fill="#63b8ff" stroke="#63b8ff" points="359.94,-210.5 369.94,-207 359.94,-203.5 359.94,-210.5"/>
</g>
<!-- Node6 -->
<g id="node6" class="node">
<title>Node6</title>
<g id="a_node6"><a xlink:href="classcom_1_1teragrep_1_1functions_1_1dpf__02_1_1BatchCollect.html#a4cfd689c0f70cb1b120485362b32c22d" target="_top" xlink:title="Returns the batchCollected dataframe.">
<polygon fill="white" stroke="#666666" points="149,-222 0,-222 0,-192 149,-192 149,-222"/>
<text text-anchor="start" x="8" y="-210" font-family="Helvetica,sans-Serif" font-size="10.00">com.teragrep.functions.dpf</text>
<text text-anchor="middle" x="74.5" y="-199" font-family="Helvetica,sans-Serif" font-size="10.00">_02.BatchCollect.call</text>
</a>
</g>
</g>
<!-- Node5&#45;&gt;Node6 -->
<g id="edge5" class="edge">
<title>Node5&#45;&gt;Node6</title>
<path fill="none" stroke="#63b8ff" d="M174.61,-207C166.16,-207 157.62,-207 149.29,-207"/>
<polygon fill="#63b8ff" stroke="#63b8ff" points="174.86,-210.5 184.86,-207 174.86,-203.5 174.86,-210.5"/>
</g>
</g>
</svg>
