<?xml version="1.0" encoding="UTF-8" standalone="no"?>
<!DOCTYPE svg PUBLIC "-//W3C//DTD SVG 1.1//EN"
 "http://www.w3.org/Graphics/SVG/1.1/DTD/svg11.dtd">
<!-- Generated by graphviz version 12.2.1 (20241206.2353)
 -->
<!-- Title: com.teragrep.functions.dpf_02.SortByClause.setDescending Pages: 1 -->
<svg width="1647pt" height="349pt"
 viewBox="0.00 0.00 1647.25 348.50" xmlns="http://www.w3.org/2000/svg" xmlns:xlink="http://www.w3.org/1999/xlink">
<g id="graph0" class="graph" transform="scale(1 1) rotate(0) translate(4 344.5)">
<title>com.teragrep.functions.dpf_02.SortByClause.setDescending</title>
<!-- Node1 -->
<g id="Node000001" class="node">
<title>Node1</title>
<g id="a_Node000001"><a xlink:title=" ">
<polygon fill="#999999" stroke="#666666" points="1639.25,-122.5 1462.75,-122.5 1462.75,-89 1639.25,-89 1639.25,-122.5"/>
<text text-anchor="start" x="1470.75" y="-109" font-family="Helvetica,sans-Serif" font-size="10.00">com.teragrep.functions.dpf</text>
<text text-anchor="middle" x="1551" y="-96.25" font-family="Helvetica,sans-Serif" font-size="10.00">_02.SortByClause.setDescending</text>
</a>
</g>
</g>
<!-- Node2 -->
<g id="Node000002" class="node">
<title>Node2</title>
<g id="a_Node000002"><a xlink:href="classcom_1_1teragrep_1_1functions_1_1dpf__02_1_1SortOperation.html#a08aa90d9188bc7d1d71bf60fbf6637af" target="_top" xlink:title=" ">
<polygon fill="white" stroke="#666666" points="1426.75,-170.5 1234.5,-170.5 1234.5,-137 1426.75,-137 1426.75,-170.5"/>
<text text-anchor="start" x="1242.5" y="-157" font-family="Helvetica,sans-Serif" font-size="10.00">com.teragrep.functions.dpf</text>
<text text-anchor="middle" x="1330.62" y="-144.25" font-family="Helvetica,sans-Serif" font-size="10.00">_02.SortOperation.detectSortByType</text>
</a>
</g>
</g>
<!-- Node1&#45;&gt;Node2 -->
<g id="edge1_Node000001_Node000002" class="edge">
<title>Node1&#45;&gt;Node2</title>
<g id="a_edge1_Node000001_Node000002"><a xlink:title=" ">
<path fill="none" stroke="#63b8ff" d="M1460.83,-125.35C1444,-129.05 1426.51,-132.89 1410.03,-136.52"/>
<polygon fill="#63b8ff" stroke="#63b8ff" points="1461.28,-128.83 1470.3,-123.27 1459.78,-122 1461.28,-128.83"/>
</a>
</g>
</g>
<!-- Node12 -->
<g id="Node000012" class="node">
<title>Node12</title>
<g id="a_Node000012"><a xlink:href="classSortOperationTest.html#aced236ff97a03acfda235216c051587c" target="_top" xlink:title=" ">
<polygon fill="white" stroke="#666666" points="152.5,-207.5 0,-207.5 0,-174 152.5,-174 152.5,-207.5"/>
<text text-anchor="start" x="8" y="-194" font-family="Helvetica,sans-Serif" font-size="10.00">SortOperationTest.testThree</text>
<text text-anchor="middle" x="76.25" y="-181.25" font-family="Helvetica,sans-Serif" font-size="10.00">SortByClauses</text>
</a>
</g>
</g>
<!-- Node1&#45;&gt;Node12 -->
<g id="edge17_Node000001_Node000012" class="edge">
<title>Node1&#45;&gt;Node12</title>
<g id="a_edge17_Node000001_Node000012"><a xlink:title=" ">
<path fill="none" stroke="#63b8ff" d="M1517.36,-129.45C1493.37,-145.82 1459.4,-166.88 1426.75,-179.75 1291.93,-232.88 1252.78,-247.75 1107.88,-247.75 1107.88,-247.75 1107.88,-247.75 465.38,-247.75 354.53,-247.75 227.76,-224.71 150.11,-207.93"/>
<polygon fill="#63b8ff" stroke="#63b8ff" points="1519.21,-132.43 1525.43,-123.85 1515.22,-126.68 1519.21,-132.43"/>
</a>
</g>
</g>
<!-- Node13 -->
<g id="Node000013" class="node">
<title>Node13</title>
<g id="a_Node000013"><a xlink:href="classSortOperationTest.html#aef072d804fb23f999f756588308a73c1" target="_top" xlink:title=" ">
<polygon fill="white" stroke="#666666" points="152.5,-140.5 0,-140.5 0,-107 152.5,-107 152.5,-140.5"/>
<text text-anchor="start" x="8" y="-127" font-family="Helvetica,sans-Serif" font-size="10.00">SortOperationTest.testTwo</text>
<text text-anchor="middle" x="76.25" y="-114.25" font-family="Helvetica,sans-Serif" font-size="10.00">SortByClauseDescending_IP</text>
</a>
</g>
</g>
<!-- Node1&#45;&gt;Node13 -->
<g id="edge18_Node000001_Node000013" class="edge">
<title>Node1&#45;&gt;Node13</title>
<g id="a_edge18_Node000001_Node000013"><a xlink:title=" ">
<path fill="none" stroke="#63b8ff" d="M1450.83,-105.75C1361.22,-105.75 1225.71,-105.75 1107.88,-105.75 1107.88,-105.75 1107.88,-105.75 896,-105.75 622.31,-105.75 297.27,-115.93 152.87,-120.98"/>
<polygon fill="#63b8ff" stroke="#63b8ff" points="1450.82,-109.25 1460.82,-105.75 1450.82,-102.25 1450.82,-109.25"/>
</a>
</g>
</g>
<!-- Node14 -->
<g id="Node000014" class="node">
<title>Node14</title>
<g id="a_Node000014"><a xlink:href="classSortOperationTest.html#a334b580450a7df03ecf9b5e68c801f26" target="_top" xlink:title=" ">
<polygon fill="white" stroke="#666666" points="148,-87.5 4.5,-87.5 4.5,-54 148,-54 148,-87.5"/>
<text text-anchor="start" x="12.5" y="-74" font-family="Helvetica,sans-Serif" font-size="10.00">SortOperationTest.testTwo</text>
<text text-anchor="middle" x="76.25" y="-61.25" font-family="Helvetica,sans-Serif" font-size="10.00">SortByClauses</text>
</a>
</g>
</g>
<!-- Node1&#45;&gt;Node14 -->
<g id="edge19_Node000001_Node000014" class="edge">
<title>Node1&#45;&gt;Node14</title>
<g id="a_edge19_Node000001_Node000014"><a xlink:title=" ">
<path fill="none" stroke="#63b8ff" d="M1451.09,-87.05C1361.75,-71.79 1226.49,-52.75 1107.88,-52.75 1107.88,-52.75 1107.88,-52.75 465.38,-52.75 354.58,-52.75 226.18,-60.16 148.38,-65.47"/>
<polygon fill="#63b8ff" stroke="#63b8ff" points="1450.35,-90.47 1460.8,-88.72 1451.54,-83.57 1450.35,-90.47"/>
</a>
</g>
</g>
<!-- Node15 -->
<g id="Node000015" class="node">
<title>Node15</title>
<g id="a_Node000015"><a xlink:href="classSortOperationTest.html#ac8f280dece164faa16d7f0c466ed84e7" target="_top" xlink:title=" ">
<polygon fill="white" stroke="#666666" points="148,-33.5 4.5,-33.5 4.5,0 148,0 148,-33.5"/>
<text text-anchor="start" x="12.5" y="-20" font-family="Helvetica,sans-Serif" font-size="10.00">SortOperationTest.testTwo</text>
<text text-anchor="middle" x="76.25" y="-7.25" font-family="Helvetica,sans-Serif" font-size="10.00">SortByClausesDescending</text>
</a>
</g>
</g>
<!-- Node1&#45;&gt;Node15 -->
<g id="edge20_Node000001_Node000015" class="edge">
<title>Node1&#45;&gt;Node15</title>
<g id="a_edge20_Node000001_Node000015"><a xlink:title=" ">
<path fill="none" stroke="#63b8ff" d="M1504.3,-83.92C1481.48,-73.88 1453.17,-62.68 1426.75,-55.75 1288.54,-19.48 1250.76,-14.75 1107.88,-14.75 1107.88,-14.75 1107.88,-14.75 465.38,-14.75 354.7,-14.75 226.27,-15.57 148.43,-16.16"/>
<polygon fill="#63b8ff" stroke="#63b8ff" points="1502.76,-87.07 1513.32,-87.97 1505.63,-80.68 1502.76,-87.07"/>
</a>
</g>
</g>
<!-- Node3 -->
<g id="Node000003" class="node">
<title>Node3</title>
<g id="a_Node000003"><a xlink:href="classcom_1_1teragrep_1_1functions_1_1dpf__02_1_1SortOperation.html#a45146062afc6803dc2bb44ff0a7c8b3a" target="_top" xlink:title=" ">
<polygon fill="white" stroke="#666666" points="1198.5,-179.88 1015.25,-179.88 1015.25,-133.62 1198.5,-133.62 1198.5,-179.88"/>
<text text-anchor="start" x="1023.25" y="-166.38" font-family="Helvetica,sans-Serif" font-size="10.00">com.teragrep.functions.dpf</text>
<text text-anchor="start" x="1023.25" y="-153.62" font-family="Helvetica,sans-Serif" font-size="10.00">_02.SortOperation.orderDatasetBy</text>
<text text-anchor="middle" x="1106.88" y="-140.88" font-family="Helvetica,sans-Serif" font-size="10.00">GivenColumns</text>
</a>
</g>
</g>
<!-- Node2&#45;&gt;Node3 -->
<g id="edge2_Node000002_Node000003" class="edge">
<title>Node2&#45;&gt;Node3</title>
<g id="a_edge2_Node000002_Node000003"><a xlink:title=" ">
<path fill="none" stroke="#63b8ff" d="M1222.96,-155.19C1214.92,-155.3 1206.84,-155.41 1198.91,-155.52"/>
<polygon fill="#63b8ff" stroke="#63b8ff" points="1222.83,-158.7 1232.78,-155.06 1222.74,-151.7 1222.83,-158.7"/>
</a>
</g>
</g>
<!-- Node4 -->
<g id="Node000004" class="node">
<title>Node4</title>
<g id="a_Node000004"><a xlink:href="classcom_1_1teragrep_1_1functions_1_1dpf__02_1_1BatchCollect.html#a00b243598f8845aac78b565b7f10eb8e" target="_top" xlink:title=" ">
<polygon fill="white" stroke="#666666" points="979.25,-173.5 814.75,-173.5 814.75,-140 979.25,-140 979.25,-173.5"/>
<text text-anchor="start" x="822.75" y="-160" font-family="Helvetica,sans-Serif" font-size="10.00">com.teragrep.functions.dpf</text>
<text text-anchor="middle" x="897" y="-147.25" font-family="Helvetica,sans-Serif" font-size="10.00">_02.BatchCollect.orderDataset</text>
</a>
</g>
</g>
<!-- Node3&#45;&gt;Node4 -->
<g id="edge3_Node000003_Node000004" class="edge">
<title>Node3&#45;&gt;Node4</title>
<g id="a_edge3_Node000003_Node000004"><a xlink:title=" ">
<path fill="none" stroke="#63b8ff" d="M1003.61,-156.75C995.54,-156.75 987.45,-156.75 979.54,-156.75"/>
<polygon fill="#63b8ff" stroke="#63b8ff" points="1003.49,-160.25 1013.49,-156.75 1003.49,-153.25 1003.49,-160.25"/>
</a>
</g>
</g>
<!-- Node5 -->
<g id="Node000005" class="node">
<title>Node5</title>
<g id="a_Node000005"><a xlink:href="classcom_1_1teragrep_1_1functions_1_1dpf__02_1_1BatchCollect.html#aee71a97b019999a61756efca7ce17147" target="_top" xlink:title=" ">
<polygon fill="white" stroke="#666666" points="755.5,-167.5 607.5,-167.5 607.5,-134 755.5,-134 755.5,-167.5"/>
<text text-anchor="start" x="615.5" y="-154" font-family="Helvetica,sans-Serif" font-size="10.00">com.teragrep.functions.dpf</text>
<text text-anchor="middle" x="681.5" y="-141.25" font-family="Helvetica,sans-Serif" font-size="10.00">_02.BatchCollect.collect</text>
</a>
</g>
</g>
<!-- Node4&#45;&gt;Node5 -->
<g id="edge4_Node000004_Node000005" class="edge">
<title>Node4&#45;&gt;Node5</title>
<g id="a_edge4_Node000004_Node000005"><a xlink:title=" ">
<path fill="none" stroke="#63b8ff" d="M802.95,-154.13C787.13,-153.69 770.9,-153.23 755.69,-152.81"/>
<polygon fill="#63b8ff" stroke="#63b8ff" points="802.76,-157.63 812.86,-154.41 802.96,-150.63 802.76,-157.63"/>
</a>
</g>
</g>
<!-- Node16 -->
<g id="Node000016" class="node">
<title>Node16</title>
<g id="a_Node000016"><a xlink:href="classcom_1_1teragrep_1_1functions_1_1dpf__02_1_1BatchCollect.html#a849eea0890b239d33d52253f7eee190d" target="_top" xlink:title=" ">
<polygon fill="white" stroke="#666666" points="778.75,-219.5 584.25,-219.5 584.25,-186 778.75,-186 778.75,-219.5"/>
<text text-anchor="start" x="592.25" y="-206" font-family="Helvetica,sans-Serif" font-size="10.00">com.teragrep.functions.dpf</text>
<text text-anchor="middle" x="681.5" y="-193.25" font-family="Helvetica,sans-Serif" font-size="10.00">_02.BatchCollect.processAggregated</text>
</a>
</g>
</g>
<!-- Node4&#45;&gt;Node16 -->
<g id="edge15_Node000004_Node000016" class="edge">
<title>Node4&#45;&gt;Node16</title>
<g id="a_edge15_Node000004_Node000016"><a xlink:title=" ">
<path fill="none" stroke="#63b8ff" d="M804.99,-176.36C790.88,-179.4 776.4,-182.52 762.56,-185.5"/>
<polygon fill="#63b8ff" stroke="#63b8ff" points="805.68,-179.79 814.72,-174.26 804.2,-172.95 805.68,-179.79"/>
</a>
</g>
</g>
<!-- Node6 -->
<g id="Node000006" class="node">
<title>Node6</title>
<g id="a_Node000006"><a xlink:href="classcom_1_1teragrep_1_1functions_1_1dpf__02_1_1BatchCollect.html#a4cfd689c0f70cb1b120485362b32c22d" target="_top" xlink:title="Returns the batchCollected dataframe.">
<polygon fill="white" stroke="#666666" points="540.38,-219.5 392.38,-219.5 392.38,-186 540.38,-186 540.38,-219.5"/>
<text text-anchor="start" x="400.38" y="-206" font-family="Helvetica,sans-Serif" font-size="10.00">com.teragrep.functions.dpf</text>
<text text-anchor="middle" x="466.38" y="-193.25" font-family="Helvetica,sans-Serif" font-size="10.00">_02.BatchCollect.call</text>
</a>
</g>
</g>
<!-- Node5&#45;&gt;Node6 -->
<g id="edge5_Node000005_Node000006" class="edge">
<title>Node5&#45;&gt;Node6</title>
<g id="a_edge5_Node000005_Node000006"><a xlink:title=" ">
<path fill="none" stroke="#63b8ff" d="M598.81,-170.68C578.72,-175.58 557.37,-180.79 537.86,-185.55"/>
<polygon fill="#63b8ff" stroke="#63b8ff" points="599.47,-174.12 608.36,-168.35 597.81,-167.32 599.47,-174.12"/>
</a>
</g>
</g>
<!-- Node10 -->
<g id="Node000010" class="node">
<title>Node10</title>
<g id="a_Node000010"><a xlink:href="classSortOperationTest.html#aec1a31756fffd768b8cb7c988b409bc4" target="_top" xlink:title=" ">
<polygon fill="white" stroke="#666666" points="548.25,-158.12 384.5,-158.12 384.5,-137.38 548.25,-137.38 548.25,-158.12"/>
<text text-anchor="middle" x="466.38" y="-144.62" font-family="Helvetica,sans-Serif" font-size="10.00">SortOperationTest.startStream</text>
</a>
</g>
</g>
<!-- Node5&#45;&gt;Node10 -->
<g id="edge9_Node000005_Node000010" class="edge">
<title>Node5&#45;&gt;Node10</title>
<g id="a_edge9_Node000005_Node000010"><a xlink:title=" ">
<path fill="none" stroke="#63b8ff" d="M595.92,-149.56C580.31,-149.34 564.03,-149.11 548.52,-148.89"/>
<polygon fill="#63b8ff" stroke="#63b8ff" points="595.59,-153.06 605.64,-149.7 595.69,-146.06 595.59,-153.06"/>
</a>
</g>
</g>
<!-- Node7 -->
<g id="Node000007" class="node">
<title>Node7</title>
<g id="a_Node000007"><a xlink:href="classBatchCollectTest.html#a149f0abf81b39a4317b6f5d3dec98723" target="_top" xlink:title=" ">
<polygon fill="white" stroke="#666666" points="347.38,-296.12 189.62,-296.12 189.62,-275.38 347.38,-275.38 347.38,-296.12"/>
<text text-anchor="middle" x="268.5" y="-282.62" font-family="Helvetica,sans-Serif" font-size="10.00">BatchCollectTest.startStream</text>
</a>
</g>
</g>
<!-- Node6&#45;&gt;Node7 -->
<g id="edge6_Node000006_Node000007" class="edge">
<title>Node6&#45;&gt;Node7</title>
<g id="a_edge6_Node000006_Node000007"><a xlink:title=" ">
<path fill="none" stroke="#63b8ff" d="M414.35,-224.37C376.05,-240.6 325.23,-262.13 295.09,-274.91"/>
<polygon fill="#63b8ff" stroke="#63b8ff" points="415.55,-227.66 423.4,-220.54 412.82,-221.22 415.55,-227.66"/>
</a>
</g>
</g>
<!-- Node8 -->
<g id="Node000008" class="node">
<title>Node8</title>
<g id="a_Node000008"><a xlink:href="classBatchCollectTest.html#a8c0559279adae48dcf9e519a7f1a1e25" target="_top" xlink:title=" ">
<polygon fill="white" stroke="#666666" points="152.5,-340.5 0,-340.5 0,-307 152.5,-307 152.5,-340.5"/>
<text text-anchor="start" x="8" y="-327" font-family="Helvetica,sans-Serif" font-size="10.00">BatchCollectTest.testCollect</text>
<text text-anchor="middle" x="76.25" y="-314.25" font-family="Helvetica,sans-Serif" font-size="10.00">AsDataframe</text>
</a>
</g>
</g>
<!-- Node7&#45;&gt;Node8 -->
<g id="edge7_Node000007_Node000008" class="edge">
<title>Node7&#45;&gt;Node8</title>
<g id="a_edge7_Node000007_Node000008"><a xlink:title=" ">
<path fill="none" stroke="#63b8ff" d="M201.96,-298.84C186.14,-302 169.11,-305.4 152.87,-308.65"/>
<polygon fill="#63b8ff" stroke="#63b8ff" points="202.63,-302.28 211.75,-296.88 201.26,-295.41 202.63,-302.28"/>
</a>
</g>
</g>
<!-- Node9 -->
<g id="Node000009" class="node">
<title>Node9</title>
<g id="a_Node000009"><a xlink:href="classBatchCollectTest.html#a71433847e60e2f6ba38d2564f79da44a" target="_top" xlink:title=" ">
<polygon fill="white" stroke="#666666" points="146.12,-288.5 6.38,-288.5 6.38,-255 146.12,-255 146.12,-288.5"/>
<text text-anchor="start" x="14.38" y="-275" font-family="Helvetica,sans-Serif" font-size="10.00">BatchCollectTest.testSkip</text>
<text text-anchor="middle" x="76.25" y="-262.25" font-family="Helvetica,sans-Serif" font-size="10.00">Limiting</text>
</a>
</g>
</g>
<!-- Node7&#45;&gt;Node9 -->
<g id="edge8_Node000007_Node000009" class="edge">
<title>Node7&#45;&gt;Node9</title>
<g id="a_edge8_Node000007_Node000009"><a xlink:title=" ">
<path fill="none" stroke="#63b8ff" d="M177.94,-279.16C167.42,-278.39 156.81,-277.6 146.62,-276.85"/>
<polygon fill="#63b8ff" stroke="#63b8ff" points="177.56,-282.64 187.78,-279.88 178.07,-275.66 177.56,-282.64"/>
</a>
</g>
</g>
<!-- Node11 -->
<g id="Node000011" class="node">
<title>Node11</title>
<g id="a_Node000011"><a xlink:href="classSortOperationTest.html#a068b17fb9181e151d2008f220cb1cb39" target="_top" xlink:title=" ">
<polygon fill="white" stroke="#666666" points="348.5,-101.12 188.5,-101.12 188.5,-80.38 348.5,-80.38 348.5,-101.12"/>
<text text-anchor="middle" x="268.5" y="-87.62" font-family="Helvetica,sans-Serif" font-size="10.00">SortOperationTest.createData</text>
</a>
</g>
</g>
<!-- Node10&#45;&gt;Node11 -->
<g id="edge10_Node000010_Node000011" class="edge">
<title>Node10&#45;&gt;Node11</title>
<g id="a_edge10_Node000010_Node000011"><a xlink:title=" ">
<path fill="none" stroke="#63b8ff" d="M417.41,-133.79C383.27,-123.86 338.07,-110.71 306.66,-101.57"/>
<polygon fill="#63b8ff" stroke="#63b8ff" points="416.04,-137.04 426.62,-136.47 417.99,-130.32 416.04,-137.04"/>
</a>
</g>
</g>
<!-- Node11&#45;&gt;Node12 -->
<g id="edge11_Node000011_Node000012" class="edge">
<title>Node11&#45;&gt;Node12</title>
<g id="a_edge11_Node000011_Node000012"><a xlink:title=" ">
<path fill="none" stroke="#63b8ff" d="M237.09,-106.73C202.29,-125.03 145.5,-154.88 109.81,-173.63"/>
<polygon fill="#63b8ff" stroke="#63b8ff" points="238.58,-109.91 245.8,-102.16 235.32,-103.71 238.58,-109.91"/>
</a>
</g>
</g>
<!-- Node11&#45;&gt;Node13 -->
<g id="edge12_Node000011_Node000013" class="edge">
<title>Node11&#45;&gt;Node13</title>
<g id="a_edge12_Node000011_Node000013"><a xlink:title=" ">
<path fill="none" stroke="#63b8ff" d="M193.8,-103.53C180.34,-105.87 166.28,-108.31 152.77,-110.65"/>
<polygon fill="#63b8ff" stroke="#63b8ff" points="194.2,-107.02 203.45,-101.86 193,-100.12 194.2,-107.02"/>
</a>
</g>
</g>
<!-- Node11&#45;&gt;Node14 -->
<g id="edge13_Node000011_Node000014" class="edge">
<title>Node11&#45;&gt;Node14</title>
<g id="a_edge13_Node000011_Node000014"><a xlink:title=" ">
<path fill="none" stroke="#63b8ff" d="M176.93,-81.23C167.3,-80.22 157.6,-79.2 148.23,-78.21"/>
<polygon fill="#63b8ff" stroke="#63b8ff" points="176.38,-84.69 186.69,-82.25 177.11,-77.73 176.38,-84.69"/>
</a>
</g>
</g>
<!-- Node11&#45;&gt;Node15 -->
<g id="edge14_Node000011_Node000015" class="edge">
<title>Node11&#45;&gt;Node15</title>
<g id="a_edge14_Node000011_Node000015"><a xlink:title=" ">
<path fill="none" stroke="#63b8ff" d="M230.62,-75.74C208.11,-66.63 178.7,-54.86 152.5,-44.75 143.27,-41.19 133.37,-37.45 123.88,-33.9"/>
<polygon fill="#63b8ff" stroke="#63b8ff" points="229.09,-78.89 239.68,-79.4 231.72,-72.4 229.09,-78.89"/>
</a>
</g>
</g>
<!-- Node16&#45;&gt;Node6 -->
<g id="edge16_Node000016_Node000006" class="edge">
<title>Node16&#45;&gt;Node6</title>
<g id="a_edge16_Node000016_Node000006"><a xlink:title=" ">
<path fill="none" stroke="#63b8ff" d="M572.64,-202.75C561.81,-202.75 550.99,-202.75 540.65,-202.75"/>
<polygon fill="#63b8ff" stroke="#63b8ff" points="572.4,-206.25 582.4,-202.75 572.4,-199.25 572.4,-206.25"/>
</a>
</g>
</g>
</g>
</svg>
