<?xml version="1.0" encoding="UTF-8" standalone="no"?>
<!DOCTYPE svg PUBLIC "-//W3C//DTD SVG 1.1//EN"
 "http://www.w3.org/Graphics/SVG/1.1/DTD/svg11.dtd">
<!-- Generated by graphviz version 12.2.1 (20241206.2353)
 -->
<!-- Title: src/main/java/com/teragrep/functions/dpf_02/ConvertIPStringToInt.java Pages: 1 -->
<svg width="525pt" height="111pt"
 viewBox="0.00 0.00 525.12 111.00" xmlns="http://www.w3.org/2000/svg" xmlns:xlink="http://www.w3.org/1999/xlink">
<g id="graph0" class="graph" transform="scale(1 1) rotate(0) translate(4 107)">
<title>src/main/java/com/teragrep/functions/dpf_02/ConvertIPStringToInt.java</title>
<!-- Node1 -->
<g id="Node000001" class="node">
<title>Node1</title>
<g id="a_Node000001"><a xlink:title=" ">
<polygon fill="#999999" stroke="#666666" points="355,-103 176.25,-103 176.25,-56.75 355,-56.75 355,-103"/>
<text text-anchor="start" x="184.25" y="-89.5" font-family="Helvetica,sans-Serif" font-size="10.00">src/main/java/com/teragrep</text>
<text text-anchor="start" x="184.25" y="-76.75" font-family="Helvetica,sans-Serif" font-size="10.00">/functions/dpf_02/ConvertIPString</text>
<text text-anchor="middle" x="265.62" y="-64" font-family="Helvetica,sans-Serif" font-size="10.00">ToInt.java</text>
</a>
</g>
</g>
<!-- Node2 -->
<g id="Node000002" class="node">
<title>Node2</title>
<g id="a_Node000002"><a xlink:title=" ">
<polygon fill="#e0e0e0" stroke="#999999" points="189.25,-20.75 0,-20.75 0,0 189.25,0 189.25,-20.75"/>
<text text-anchor="middle" x="94.62" y="-7.25" font-family="Helvetica,sans-Serif" font-size="10.00">org.apache.spark.sql.api.java.UDF1</text>
</a>
</g>
</g>
<!-- Node1&#45;&gt;Node2 -->
<g id="edge1_Node000001_Node000002" class="edge">
<title>Node1&#45;&gt;Node2</title>
<g id="a_edge1_Node000001_Node000002"><a xlink:title=" ">
<path fill="none" stroke="#63b8ff" d="M208.68,-56.4C182.63,-46.12 152.59,-34.26 129.88,-25.29"/>
<polygon fill="#63b8ff" stroke="#63b8ff" points="131.36,-22.11 120.77,-21.7 128.79,-28.62 131.36,-22.11"/>
</a>
</g>
</g>
<!-- Node3 -->
<g id="Node000003" class="node">
<title>Node3</title>
<g id="a_Node000003"><a xlink:title=" ">
<polygon fill="#e0e0e0" stroke="#999999" points="323.88,-20.75 207.38,-20.75 207.38,0 323.88,0 323.88,-20.75"/>
<text text-anchor="middle" x="265.62" y="-7.25" font-family="Helvetica,sans-Serif" font-size="10.00">java.net.InetAddress</text>
</a>
</g>
</g>
<!-- Node1&#45;&gt;Node3 -->
<g id="edge2_Node000001_Node000003" class="edge">
<title>Node1&#45;&gt;Node3</title>
<g id="a_edge2_Node000001_Node000003"><a xlink:title=" ">
<path fill="none" stroke="#63b8ff" d="M265.62,-56.4C265.62,-48.73 265.62,-40.19 265.62,-32.63"/>
<polygon fill="#63b8ff" stroke="#63b8ff" points="269.13,-32.65 265.63,-22.65 262.13,-32.65 269.13,-32.65"/>
</a>
</g>
</g>
<!-- Node4 -->
<g id="Node000004" class="node">
<title>Node4</title>
<g id="a_Node000004"><a xlink:title=" ">
<polygon fill="#e0e0e0" stroke="#999999" points="517.12,-20.75 342.12,-20.75 342.12,0 517.12,0 517.12,-20.75"/>
<text text-anchor="middle" x="429.62" y="-7.25" font-family="Helvetica,sans-Serif" font-size="10.00">java.net.UnknownHostException</text>
</a>
</g>
</g>
<!-- Node1&#45;&gt;Node4 -->
<g id="edge3_Node000001_Node000004" class="edge">
<title>Node1&#45;&gt;Node4</title>
<g id="a_edge3_Node000001_Node000004"><a xlink:title=" ">
<path fill="none" stroke="#63b8ff" d="M320.23,-56.4C345.1,-46.16 373.77,-34.36 395.52,-25.41"/>
<polygon fill="#63b8ff" stroke="#63b8ff" points="396.58,-28.76 404.5,-21.72 393.92,-22.29 396.58,-28.76"/>
</a>
</g>
</g>
</g>
</svg>
